<svg width="166" height="106" viewBox="0 0 166 106" fill="none" xmlns="http://www.w3.org/2000/svg">
<g filter="url(#filter0_d)">
<path d="M15 6C15 2.68629 17.6863 0 21 0H141C144.314 0 147 2.68629 147 6V88H15V6Z" fill="#838383"/>
</g>
<g filter="url(#filter1_d)">
<path d="M0 89.6667C0 88.7462 0.746192 88 1.66667 88H160.333C161.254 88 162 88.7462 162 89.6667V89.6667C162 94.269 158.269 98 153.667 98H8.33333C3.73096 98 0 94.269 0 89.6667V89.6667Z" fill="#C4C4C4"/>
</g>
<path d="M63 88H99V88C99 90.7614 96.7614 93 94 93H68C65.2386 93 63 90.7614 63 88V88Z" fill="#6B6B6B"/>
<rect x="24" y="9" width="114" height="70" rx="2" fill="#2F2F2F"/>
<path d="M40.5 38.796L48.816 43.764V47.256L37.044 39.984V37.536L48.816 30.408V33.792L40.5 38.796ZM67.0627 26.16L67.0267 26.664L55.2187 51H52.1227L52.0147 50.532L63.8227 26.16H67.0627ZM82.0004 37.536V39.984L70.2284 47.256V43.764L78.5444 38.796L70.2284 33.792V30.408L82.0004 37.536Z" fill="#53E183"/>
<rect x="91" y="37" width="35" height="4" rx="2" fill="#FF7373"/>
<rect x="91" y="27" width="16" height="4" rx="2" fill="#FF7373"/>
<rect x="110" y="27" width="16" height="4" rx="2" fill="#FF7373"/>
<rect x="68" y="57" width="45" height="4" rx="2" fill="#FF7373"/>
<rect x="118" y="57" width="8" height="4" rx="2" fill="#FF7373"/>
<rect x="36" y="57" width="26" height="4" rx="2" fill="#FF7373"/>
<rect x="100" y="47" width="26" height="4" rx="2" fill="#FF7373"/>
<rect x="91" y="47" width="6" height="4" rx="2" fill="#FF7373"/>
<rect x="36" y="67" width="90" height="4" rx="2" fill="#FF7373"/>
<path d="M24 11C24 9.89543 24.8954 9 26 9H136C137.105 9 138 9.89543 138 11V20H24V11Z" fill="#473F3A"/>
<circle cx="46.5" cy="14.5" r="2.5" fill="#66EE5A"/>
<circle cx="38.5" cy="14.5" r="2.5" fill="#A7A7A7"/>
<circle cx="30.5" cy="14.5" r="2.5" fill="#EE5A5A"/>
<defs>
<filter id="filter0_d" x="11" y="0" width="140" height="96" filterUnits="userSpaceOnUse" color-interpolation-filters="sRGB">
<feFlood flood-opacity="0" result="BackgroundImageFix"/>
<feColorMatrix in="SourceAlpha" type="matrix" values="0 0 0 0 0 0 0 0 0 0 0 0 0 0 0 0 0 0 127 0"/>
<feOffset dy="4"/>
<feGaussianBlur stdDeviation="2"/>
<feColorMatrix type="matrix" values="0 0 0 0 0 0 0 0 0 0 0 0 0 0 0 0 0 0 0.25 0"/>
<feBlend mode="normal" in2="BackgroundImageFix" result="effect1_dropShadow"/>
<feBlend mode="normal" in="SourceGraphic" in2="effect1_dropShadow" result="shape"/>
</filter>
<filter id="filter1_d" x="-4" y="88" width="170" height="18" filterUnits="userSpaceOnUse" color-interpolation-filters="sRGB">
<feFlood flood-opacity="0" result="BackgroundImageFix"/>
<feColorMatrix in="SourceAlpha" type="matrix" values="0 0 0 0 0 0 0 0 0 0 0 0 0 0 0 0 0 0 127 0"/>
<feOffset dy="4"/>
<feGaussianBlur stdDeviation="2"/>
<feColorMatrix type="matrix" values="0 0 0 0 0 0 0 0 0 0 0 0 0 0 0 0 0 0 0.25 0"/>
<feBlend mode="normal" in2="BackgroundImageFix" result="effect1_dropShadow"/>
<feBlend mode="normal" in="SourceGraphic" in2="effect1_dropShadow" result="shape"/>
</filter>
</defs>
</svg>
